<?xml version="1.0" standalone="no"?>
<!DOCTYPE svg PUBLIC "-//W3C//DTD SVG 20010904//EN"
 "http://www.w3.org/TR/2001/REC-SVG-20010904/DTD/svg10.dtd">
<svg version="1.0" xmlns="http://www.w3.org/2000/svg"
 width="300.000000pt" height="300.000000pt" viewBox="0 0 300.000000 300.000000"
 preserveAspectRatio="xMidYMid meet">
<metadata>
Created by potrace 1.11, written by Peter Selinger 2001-2013
</metadata>
<g transform="translate(0.000000,300.000000) scale(0.100000,-0.100000)"
fill="#000000" stroke="none">
<path d="M705 2628 c-20 -5 -81 -59 -183 -161 -144 -146 -152 -155 -152 -193
0 -21 5 -46 10 -54 18 -28 194 -200 205 -200 14 0 395 383 395 397 0 18 -200
211 -223 215 -12 2 -36 1 -52 -4z"/>
<path d="M843 2158 c-106 -106 -193 -197 -193 -202 0 -21 72 -84 89 -79 23 9
379 364 384 384 5 18 -57 89 -76 89 -6 0 -98 -86 -204 -192z"/>
<path d="M1010 2028 l-173 -173 -136 0 -136 0 -2 -357 -1 -358 57 0 56 0 0
143 c-1 78 3 145 8 148 12 8 76 -6 91 -21 6 -6 13 -65 16 -138 l5 -127 56 -3
55 -3 -4 133 c-4 138 -15 179 -54 207 -19 13 -19 13 0 27 30 21 52 77 52 135
l0 53 105 -106 105 -106 -1 -124 c0 -67 0 -144 0 -170 l1 -48 155 0 c138 0
155 2 155 17 0 9 120 -104 272 -256 l272 -272 11 48 c6 26 17 58 23 70 15 26
72 63 100 63 52 0 92 40 92 92 0 31 38 87 72 104 16 8 48 18 70 22 l41 7 -53
53 -53 52 51 0 52 0 2 308 3 307 47 1 c26 0 51 4 55 8 5 4 9 28 10 52 l2 44
-178 0 -177 0 1 -44 c0 -25 3 -48 7 -52 4 -4 31 -7 60 -7 l53 1 -1 -296 c-1
-164 -2 -299 -3 -301 0 -2 -72 68 -159 155 -167 167 -162 159 -177 269 -4 22
-8 47 -10 55 -2 8 -7 35 -10 60 -3 25 -10 69 -15 99 -6 30 -10 56 -10 58 0 2
-38 3 -84 3 l-84 0 -6 -47 c-4 -27 -10 -56 -12 -66 -5 -14 -57 33 -241 217
-129 130 -241 236 -248 236 -7 0 -90 -78 -185 -172z m-238 -286 c17 -17 21
-143 6 -172 -13 -25 -72 -45 -93 -32 -6 4 -10 52 -10 114 l-1 107 44 -3 c24
-2 48 -8 54 -14z m1018 -59 c0 -16 3 -39 7 -53 6 -24 6 -24 -11 -8 -11 11 -16
30 -14 53 3 41 18 48 18 8z m-450 -434 c0 -4 -27 -6 -60 -6 l-60 1 0 66 0 65
60 -60 c33 -33 60 -63 60 -66z"/>
<path d="M121 1857 c-41 -16 -77 -56 -89 -100 -5 -17 -8 -140 -8 -272 2 -266
5 -282 68 -327 25 -18 46 -23 93 -23 76 0 113 16 145 62 21 31 26 50 29 125
l3 89 -53 -3 -54 -3 -2 -69 c-2 -77 -15 -99 -58 -98 -56 0 -59 10 -59 262 0
245 1 249 50 264 13 4 29 0 43 -11 18 -15 23 -29 23 -76 2 -62 -5 -57 76 -60
l27 -1 0 76 c-1 118 -42 165 -150 174 -27 2 -65 -2 -84 -9z"/>
<path d="M2670 1500 l0 -361 152 3 153 3 2 48 c2 53 13 49 -120 50 l-78 0 3
106 3 106 75 0 75 0 2 48 c1 30 -2 48 -10 49 -11 1 -64 4 -125 7 -22 1 -23 3
-21 100 l1 99 77 0 c126 0 117 -5 118 52 l2 50 -155 0 -154 0 0 -360z"/>
<path d="M2419 966 c-2 -2 -23 -6 -47 -10 -77 -10 -95 -25 -112 -90 -20 -76
-55 -111 -125 -126 -30 -6 -59 -18 -65 -26 -20 -23 -40 -132 -26 -142 20 -15
209 -81 218 -76 4 3 8 18 8 33 0 96 103 200 197 201 17 0 34 4 37 9 3 5 -13
58 -35 117 -43 116 -43 116 -50 110z"/>
<path d="M2441 645 c-54 -18 -90 -70 -93 -133 l-3 -54 127 -47 c179 -67 185
-61 114 129 -44 115 -44 115 -77 116 -19 1 -50 -4 -68 -11z"/>
</g>
</svg>
