<svg width="375" height="150" version="1.1" viewBox="0 0 99.219 39.688" xmlns="http://www.w3.org/2000/svg">
  <g transform="translate(0 -257.31)">
    <g transform="translate(26.175 -32.506)">
      <g transform="matrix(.14171 0 0 .14171 9.1693 322.17)" style="fill-rule:evenodd;fill:#969696;stroke-linecap:square;stroke-linejoin:bevel">
        <path d="m11.135 10.441c0.1525 0 0.271 0.1017 0.271 0.2712v1.3051c0 0.1525-0.1186 0.2712-0.2712 0.2712h-4.0846v11.424c0 0.1864-0.10169 0.2879-0.27119 0.2879h-0.98305c-0.44068 0-0.66102-0.2879-0.66102-0.6778v-11.034h-4.0846c-0.15254 0-0.28814-0.1016-0.28814-0.2711v-1.288c0-0.1697 0.11864-0.2884 0.28814-0.2884h10.085l-4e-4 -1e-4m13.849 13.237c0.1186 0.1695 0.0341 0.322-0.1861 0.322h-1.2544c-0.3729 0-0.6781-0.3388-0.8136-0.5422l-2.6441-3.8983h-3.3559v4.1525c0 0.1864-0.1016 0.288-0.2711 0.288h-1.3729c-0.1695 0-0.2712-0.1016-0.2712-0.288v-13c0-0.1525 0.1017-0.2712 0.2712-0.2712h5.2203c2.9659 0 4.5592 2.5254 4.5592 4.5592 0 1.6949-1.0168 3.5934-2.9322 4.2881l3.0508 4.3899m-8.2536-11.39v5.4237h3.3559c1.9153 0 2.8644-1.3729 2.8644-2.7458 0-1.3559-0.9661-2.678-2.8644-2.678h-3.3559v1e-4m24.798 11.407c0.0846 0.1697 0.0339 0.3051-0.1526 0.3051h-1.5424c-0.1525 0-0.2371-0.0676-0.2879-0.1864l-1.0508-2.2034h-7.3051l-1.0339 2.2034c-0.0678 0.1188-0.1526 0.1864-0.2882 0.1864h-1.5593c-0.1695 0-0.2542-0.1354-0.1864-0.3051l6.3898-13.186c0.0508-0.1186 0.1356-0.1525 0.2203-0.1525h0.2202c0.0847 0 0.1525 0.0339 0.2203 0.1525l6.356 13.186m-9.5087-3.8303h5.6441l-2.8136-6-2.8305 6m24.527 1.7118c0.1356 0.1186 0.1358 0.2714-0.0167 0.4237-1.2542 1.3222-2.9661 2.1186-5 2.1186-3.7627 0-6.8814-3.0168-6.8814-6.8642s3.1186-6.9322 6.8814-6.9322c2 0 3.7625 0.7966 5.0337 2.1356 0.1525 0.1524 0.1525 0.305 0.0169 0.4066l-1.0847 0.8812c-0.1356 0.1188-0.2542 0.1188-0.3898-0.0168-0.7288-0.7627-1.9831-1.5593-3.5085-1.5593-3.0508 0-5.0339 2.5424-5.0339 5.0847 0 2.5593 1.9831 5.0169 5.0339 5.0169 1.5085 0 2.7288-0.7627 3.4576-1.5085 0.1356-0.1525 0.2712-0.1693 0.4068-0.0677l1.0847 0.8814m13.883 1.7967c0.2544 0.2711 0.1183 0.6274-0.2546 0.6274h-1.4236c-0.1526 0-0.2373-0.0337-0.356-0.1524l-6.339-6.678v6.5593c0 0.1524-0.1186 0.2711-0.2712 0.2711h-1.3729c-0.1525 0-0.2712-0.1187-0.2712-0.2711v-12.034c-0.0169-0.3898-0.0506-0.6271-0.1015-0.9152-0.0339-0.1865 0.017-0.339 0.1865-0.339h1.1697c0.4067 0 0.661 0.2373 0.661 0.6102v5.661l5.5932-6.1186c0.0847-0.1019 0.1864-0.1527 0.339-0.1527h1.4576c0.3389 0 0.4576 0.3559 0.2542 0.5761l-5.4407 5.9322 6.1695 6.4237m26.072-12.932c0.1525 0 0.271 0.1017 0.271 0.2712v1.3051c0 0.1525-0.1186 0.2712-0.2712 0.2712h-4.0846v11.424c0 0.1864-0.1017 0.2879-0.2712 0.2879h-0.983c-0.4407 0-0.661-0.2879-0.661-0.6778v-11.034h-4.0846c-0.1526 0-0.2882-0.1016-0.2882-0.2711v-1.288c0-0.1697 0.1187-0.2884 0.2882-0.2884h10.085l-4e-4 -1e-4m10.629 13.678c3.814 0 6.915-3.0337 6.915-6.9151 0-3.8305-3.101-6.8814-6.915-6.8814-3.847 0-6.949 3.0508-6.949 6.8814 0 3.8814 3.102 6.9151 6.949 6.9151m0-1.8472c-2.746 0-5.034-2.2881-5.034-5.0678 0-2.7456 2.288-5.0337 5.034-5.0337 2.729 0 5.017 2.2881 5.017 5.0337 0 2.7797-2.288 5.0678-5.017 5.0678m22.035-4.3051c0.204 0 0.289 0.102 0.289 0.2885v3.5085c0 0.0847-0.051 0.1695-0.119 0.2371-1.254 1.3222-2.966 2.1186-5 2.1186-3.763 0-6.881-3.0168-6.881-6.8642s3.118-6.9322 6.881-6.9322c2 0 3.763 0.7966 5.034 2.1356 0.152 0.1524 0.152 0.3049 0.017 0.4066l-1.085 0.8812c-0.136 0.1188-0.254 0.1188-0.39-0.0168-0.729-0.7627-1.983-1.5593-3.508-1.5593-3.051 0-5.034 2.5424-5.034 5.0847 0 2.5593 1.983 5.0169 5.034 5.0169 1.322 0 2.406-0.5763 3.152-1.2203v-1.2542h-3.102c-0.186 0-0.288-0.0847-0.288-0.2712v-1.2544c0-0.2034 0.085-0.3051 0.271-0.3051h4.729m12.647-5.6783h-6.729v4.1356h3.898c0.17 0 0.288 0.1186 0.288 0.2881v1.2712c0 0.1865-0.118 0.2882-0.288 0.2882h-3.898l0.017 3.8814h6.712c0.169 0 0.288 0.1186 0.288 0.2881v1.2712c0 0.1695-0.119 0.2882-0.288 0.2882h-8.356c-0.17 0-0.289-0.1187-0.289-0.2882v-13c0-0.1525 0.102-0.2712 0.272-0.2712h8.373c0.169 0 0.288 0.1187 0.288 0.2712v1.3051c0 0.1695-0.119 0.2712-0.288 0.2712v-1e-4m14.102-1.847c0.153 0 0.271 0.1017 0.271 0.2712v1.3051c0 0.1525-0.118 0.2712-0.271 0.2712h-4.084v11.424c0 0.1864-0.102 0.2879-0.272 0.2879h-0.983c-0.44 0-0.661-0.2879-0.661-0.6778v-11.034h-4.084c-0.153 0-0.288-0.1016-0.288-0.2711v-1.288c0-0.1697 0.118-0.2884 0.288-0.2884h10.085l-1e-3 -1e-4m14.935 0c0.169 0 0.288 0.1188 0.288 0.2714v13c0 0.1864-0.102 0.2879-0.254 0.2879h-1c-0.424 0-0.661-0.2879-0.661-0.6778v-5.0169h-7.458v5.4068c0 0.1526-0.119 0.288-0.271 0.288h-1.356c-0.169 0-0.288-0.1186-0.288-0.2881v-13c0-0.1526 0.102-0.2712 0.271-0.2712h1.356c0.169 0 0.288 0.1186 0.288 0.2712v5.678h7.458v-5.678c0-0.1526 0.101-0.2712 0.271-0.2712h1.356v-1e-4m13.103 1.847h-6.729v4.1356h3.899c0.169 0 0.288 0.1186 0.288 0.2881v1.2712c0 0.1865-0.119 0.2882-0.288 0.2882h-3.899l0.017 3.8814h6.712c0.17 0 0.288 0.1186 0.288 0.2881v1.2712c0 0.1695-0.118 0.2882-0.288 0.2882h-8.356c-0.169 0-0.288-0.1187-0.288-0.2882v-13c0-0.1525 0.102-0.2712 0.271-0.2712h8.373c0.17 0 0.288 0.1187 0.288 0.2712v1.3051c0 0.1695-0.118 0.2712-0.288 0.2712v-1e-4m14.154 11.39c0.119 0.1695 0.034 0.322-0.186 0.322h-1.254c-0.373 0-0.679-0.3388-0.814-0.5422l-2.644-3.8983h-3.356v4.1525c0 0.1864-0.102 0.288-0.271 0.288h-1.373c-0.17 0-0.271-0.1016-0.271-0.288v-13c0-0.1525 0.101-0.2712 0.271-0.2712h5.22c2.966 0 4.559 2.5254 4.559 4.5592 0 1.6949-1.016 3.5934-2.932 4.2881l3.051 4.3899m-8.254-11.39v5.4237h3.356c1.916 0 2.865-1.3729 2.865-2.7458 0-1.3559-0.966-2.678-2.865-2.678h-3.356v1e-4" style="fill-rule:nonzero;fill:#969696"/>
      </g>
      <ellipse cx="11.319" cy="296.52" rx="1.3698" ry="1.3696" style="fill:none;stroke-linecap:square;stroke-linejoin:bevel;stroke-width:.79375;stroke:#ff9100"/>
      <path d="m31.331 296.7c0.0105 2.5068 2.7727 5.8145 2.7727 5.8145 2.5061-3.0556 2.9618-5.0061 2.8488-6.1564-0.10069-1.4622-1.3155-2.6177-2.8038-2.6177-1.4807 0-2.6876 1.1653-2.7995 2.6178m2.7962-1.2906c0.83416 0 1.5104 0.6766 1.5104 1.5104 0 0.83416-0.67624 1.5104-1.5104 1.5104-0.83416 0-1.5104-0.67624-1.5104-1.5104s0.67624-1.5104 1.5104-1.5104" style="fill:#ff9100"/>
      <ellipse cx="18.553" cy="296.52" rx="1.3698" ry="1.3696" style="fill:none;stroke-linecap:square;stroke-linejoin:bevel;stroke-width:.79375;stroke:#ff9100"/>
      <ellipse cx="25.786" cy="296.52" rx="1.3698" ry="1.3696" style="fill:none;stroke-linecap:square;stroke-linejoin:bevel;stroke-width:.79375;stroke:#ff9100"/>
      <path d="m13.022 296.54 3.7974-0.0236" style="fill:none;stroke-width:.39687;stroke:#000"/>
      <path d="m20.264 296.54 3.7974-0.0236" style="fill:none;stroke-width:.39687;stroke:#000"/>
      <path d="m27.533 296.54 3.8213-0.0236" style="fill:none;stroke-width:.39687;stroke:#000"/>
      <g transform="matrix(.36221 0 0 .36221 6.5117 290.11)" style="fill-rule:evenodd;fill:#ccc;stroke-linecap:square;stroke-linejoin:bevel">
        <path d="m84.087 37.562c0 0.7853-3.4846 1.422-7.783 1.422s-7.783-0.6367-7.783-1.422 3.4846-1.422 7.783-1.422 7.783 0.6367 7.783 1.422" style="fill-rule:nonzero;fill:#ccc"/>
      </g>
      <g transform="translate(-86.88 253.81)">
        <g transform="matrix(.49237 0 0 .49237 61.338 54.663)" style="fill-rule:evenodd;stroke-linecap:square;stroke-linejoin:bevel">
          <path d="m125.04 5c0.38 0 0.7 0.32 0.7 0.7v13.4c0 0.38-0.32 0.7-0.7 0.7h-1.76c-0.22 0-0.44-0.1-0.58-0.28l-9.78-13.4c-0.16-0.22-0.18-0.5-0.06-0.74s0.36-0.38 0.62-0.38h1.76c0.22 0 0.44 0.1 0.56 0.28l7.02 9.54v-9.12c0-0.38 0.3-0.7 0.7-0.7h1.52m-9.34 10.4v3.7c0 0.38-0.32 0.7-0.7 0.7h-1.52c-0.38 0-0.7-0.32-0.7-0.7v-3.7c0-7.382 1.9e-4 -6.8266-9.9e-4 -7.3836l2.9206 3.7632" style="fill-rule:nonzero"/>
        </g>
      </g>
      <g transform="matrix(.49237 0 0 .49237 -25.541 308.47)" style="fill-rule:evenodd;stroke-linecap:square;stroke-linejoin:bevel">
        <path d="m9 7.86c-0.36-0.06-0.6-0.34-0.6-0.7v-1.46c0-0.2 0.08-0.4 0.24-0.52 0.16-0.14 0.36-0.2 0.56-0.18 1.14 0.18 2.16 0.58 3.06 1.22 1.14 0.82 1.98 1.94 2.46 3.34 0.08 0.22 0.04 0.46-0.08 0.64-0.14 0.2-0.36 0.3-0.58 0.3h-1.6c-0.28 0-0.54-0.16-0.66-0.42-0.3-0.7-0.74-1.24-1.34-1.66-0.44-0.28-0.92-0.48-1.46-0.56m5.06 6.64c0.22 0 0.44 0.1 0.58 0.3 0.12 0.18 0.16 0.42 0.08 0.64-0.48 1.4-1.32 2.52-2.46 3.34-0.9 0.64-1.92 1.04-3.06 1.22h-0.1c-0.18 0-0.34-0.06-0.46-0.18-0.16-0.12-0.24-0.32-0.24-0.52v-1.46c0-0.36 0.24-0.64 0.58-0.7 0.56-0.08 1.04-0.26 1.48-0.56 0.6-0.42 1.04-0.96 1.34-1.66 0.12-0.26 0.38-0.42 0.66-0.42h1.6m-7.16-9.26c0.16 0.12 0.26 0.32 0.26 0.54v1.56c0 0.3-0.22 0.58-0.52 0.68-0.16 0.04-0.3 0.08-0.44 0.14-0.54 0.24-0.98 0.56-1.36 0.98-0.76 0.86-1.14 1.96-1.14 3.36s0.38 2.5 1.14 3.36c0.48 0.54 1.06 0.9 1.8 1.12 0.3 0.08 0.52 0.36 0.52 0.66v1.58c0 0.22-0.1 0.42-0.26 0.54-0.14 0.12-0.3 0.16-0.46 0.16h-0.14c-1.42-0.3-2.64-1-3.62-2.08-1.26-1.42-1.9-3.2-1.9-5.34 0-2.12 0.64-3.92 1.9-5.34 0.98-1.08 2.2-1.78 3.62-2.06 0.22-0.06 0.42 0 0.6 0.14m10.82 4.88c-0.38 0-0.7-0.32-0.7-0.7v-3.72c0-0.38 0.32-0.7 0.7-0.7h1.52c0.4 0 0.7 0.32 0.7 0.7v3.72c0 0.38-0.3 0.7-0.7 0.7h-1.52m10.86-5.12c0.38 0 0.7 0.32 0.7 0.7v13.44c0 0.38-0.32 0.7-0.7 0.7h-1.52c-0.4 0-0.7-0.32-0.7-0.7v-5.28h-6.42v5.28c0 0.38-0.3 0.7-0.7 0.7h-1.52c-0.38 0-0.7-0.32-0.7-0.7v-7.48c0-0.38 0.32-0.7 0.7-0.7h8.64v-5.26c0-0.38 0.3-0.7 0.7-0.7h1.52m14.52 11.96c0.4 0 0.7 0.32 0.7 0.72v1.46c0 0.38-0.3 0.7-0.7 0.7h-9.88c-0.38 0-0.7-0.32-0.7-0.7v-1.46c0-0.4 0.32-0.72 0.7-0.72h9.88m-9.88-3.1c-0.38 0-0.7-0.32-0.7-0.7v-1.5c0-0.38 0.32-0.7 0.7-0.7h8.98c0.4 0 0.72 0.32 0.72 0.7v1.5c0 0.38-0.32 0.7-0.72 0.7h-8.98m9.88-8.86c0.4 0 0.7 0.32 0.7 0.7v1.46c0 0.4-0.3 0.72-0.7 0.72h-9.88c-0.38 0-0.7-0.32-0.7-0.72v-1.46c0-0.38 0.32-0.7 0.7-0.7h9.88m10.5 2.86c-0.36-0.06-0.6-0.34-0.6-0.7v-1.46c0-0.2 0.08-0.4 0.24-0.52 0.16-0.14 0.36-0.2 0.56-0.18 1.14 0.18 2.16 0.58 3.06 1.22 1.14 0.82 1.98 1.94 2.46 3.34 0.08 0.22 0.04 0.46-0.08 0.64-0.14 0.2-0.36 0.3-0.58 0.3h-1.6c-0.28 0-0.54-0.16-0.66-0.42-0.3-0.7-0.74-1.24-1.34-1.66-0.44-0.28-0.92-0.48-1.46-0.56m5.06 6.64c0.22 0 0.44 0.1 0.58 0.3 0.12 0.18 0.16 0.42 0.08 0.64-0.48 1.4-1.32 2.52-2.46 3.34-0.9 0.64-1.92 1.04-3.06 1.22h-0.1c-0.18 0-0.34-0.06-0.46-0.18-0.16-0.12-0.24-0.32-0.24-0.52v-1.46c0-0.36 0.24-0.64 0.58-0.7 0.56-0.08 1.04-0.26 1.48-0.56 0.6-0.42 1.04-0.96 1.34-1.66 0.12-0.26 0.38-0.42 0.66-0.42h1.6m-7.16-9.26c0.16 0.12 0.26 0.32 0.26 0.54v1.56c0 0.3-0.22 0.58-0.52 0.68-0.16 0.04-0.3 0.08-0.44 0.14-0.54 0.24-0.98 0.56-1.36 0.98-0.76 0.86-1.14 1.96-1.14 3.36s0.38 2.5 1.14 3.36c0.48 0.54 1.06 0.9 1.8 1.12 0.3 0.08 0.52 0.36 0.52 0.66v1.58c0 0.22-0.1 0.42-0.26 0.54-0.14 0.12-0.3 0.16-0.46 0.16h-0.14c-1.42-0.3-2.64-1-3.62-2.08-1.26-1.42-1.9-3.2-1.9-5.34 0-2.12 0.64-3.92 1.9-5.34 0.98-1.08 2.2-1.78 3.62-2.06 0.22-0.06 0.42 0 0.6 0.14m22.82 13.46c0.16 0.2 0.18 0.48 0.06 0.72s-0.36 0.38-0.62 0.38h-1.9c-0.24 0-0.46-0.12-0.58-0.3l-4.78-6.88-1.96 1.84v4.64c0 0.38-0.32 0.7-0.7 0.7h-1.52c-0.38 0-0.7-0.32-0.7-0.7v-5.56c0-0.2 0.08-0.38 0.22-0.5l8.36-7.84c0.14-0.14 0.3-0.2 0.48-0.2h2.16c0.28 0 0.54 0.18 0.64 0.44 0.12 0.28 0.04 0.58-0.16 0.78l-4.68 4.4 5.68 8.08m-12-8.6c-0.38 0-0.7-0.3-0.7-0.7v-3.7c0-0.38 0.32-0.7 0.7-0.7h1.52c0.38 0 0.7 0.32 0.7 0.7v3.7c0 0.4-0.32 0.7-0.7 0.7h-1.52m20.4-5.1c1.58 0 2.88 0.46 3.84 1.36 0.98 0.92 1.46 2.16 1.46 3.66 0 1.52-0.48 2.74-1.46 3.66-0.96 0.9-2.26 1.34-3.84 1.34h-3.82v4.08c0 0.38-0.32 0.7-0.7 0.7h-1.52c-0.38 0-0.7-0.32-0.7-0.7v-6.2c0-0.38 0.32-0.7 0.7-0.7h5.92c0.88 0 1.52-0.18 1.92-0.58 0.4-0.36 0.58-0.9 0.58-1.6s-0.18-1.22-0.58-1.6-1.04-0.58-1.92-0.58h-5.92c-0.38 0-0.7-0.32-0.7-0.7v-1.44c0-0.38 0.32-0.7 0.7-0.7h6.04m13.14 0.16c0.16 0.14 0.24 0.34 0.24 0.54v1.5c0 0.34-0.22 0.62-0.56 0.7-0.86 0.18-1.58 0.58-2.18 1.22-0.82 0.86-1.22 1.96-1.22 3.34 0 1.36 0.4 2.46 1.22 3.34 0.6 0.62 1.32 1.02 2.18 1.2 0.34 0.08 0.56 0.36 0.56 0.7v1.5c0 0.2-0.08 0.4-0.24 0.54-0.14 0.1-0.3 0.16-0.46 0.16h-0.12c-1.56-0.26-2.9-0.98-3.98-2.1-1.38-1.42-2.08-3.22-2.08-5.34s0.7-3.92 2.08-5.36c1.08-1.12 2.42-1.82 3.98-2.08 0.2-0.04 0.42 0.02 0.58 0.14m6.28 1.94c1.38 1.44 2.08 3.22 2.08 5.36 0 2.12-0.7 3.92-2.08 5.34-1.08 1.12-2.42 1.84-3.98 2.1h-0.12c-0.16 0-0.32-0.06-0.46-0.16-0.16-0.14-0.24-0.34-0.24-0.54v-1.5c0-0.34 0.22-0.62 0.56-0.7 0.86-0.18 1.58-0.58 2.18-1.2 0.82-0.88 1.22-1.98 1.22-3.34 0-1.38-0.4-2.48-1.22-3.34-0.6-0.64-1.32-1.04-2.18-1.22-0.34-0.08-0.56-0.36-0.56-0.7v-1.5c0-0.2 0.08-0.4 0.24-0.54 0.16-0.12 0.38-0.18 0.58-0.14 1.56 0.26 2.9 0.96 3.98 2.08m6.7 3.84c0.4 0 0.7 0.32 0.7 0.72v7.48c0 0.38-0.3 0.7-0.7 0.7h-1.52c-0.38 0-0.7-0.32-0.7-0.7v-7.48c0-0.4 0.32-0.72 0.7-0.72h1.52m0-5.94c0.4 0 0.7 0.32 0.7 0.7v3.7c0 0.4-0.3 0.72-0.7 0.72h-1.52c-0.38 0-0.7-0.32-0.7-0.72v-3.7c0-0.38 0.32-0.7 0.7-0.7h1.52m21.56 0c0.4 0 0.72 0.32 0.72 0.72v1.46c0 0.4-0.32 0.72-0.72 0.72h-2.06c-0.38 0-0.7-0.32-0.7-0.72v-1.46c0-0.4 0.32-0.72 0.7-0.72h2.06m8.94 0c0.38 0 0.7 0.32 0.7 0.72v1.46c0 0.4-0.32 0.72-0.7 0.72h-4.02v11.36c0 0.38-0.32 0.7-0.7 0.7h-1.54c-0.4 0-0.72-0.32-0.72-0.7v-13.54c0-0.4 0.32-0.72 0.72-0.72h6.26m17.42 0c0.38 0 0.7 0.32 0.7 0.7v13.4c0 0.38-0.32 0.7-0.7 0.7h-1.52c-0.38 0-0.7-0.32-0.7-0.7v-13.4c0-0.38 0.32-0.7 0.7-0.7h1.52m7.3 11.94c0.4 0 0.7 0.32 0.7 0.7v1.46c0 0.38-0.3 0.7-0.7 0.7h-4.66c-0.4 0-0.7-0.32-0.7-0.7v-1.46c0-0.38 0.3-0.7 0.7-0.7h4.66m4.86-6c0.4 0 0.7 0.32 0.7 0.72v7.48c0 0.38-0.3 0.7-0.7 0.7h-1.52c-0.38 0-0.7-0.32-0.7-0.7v-7.48c0-0.4 0.32-0.72 0.7-0.72h1.52m0-5.94c0.4 0 0.7 0.32 0.7 0.7v3.7c0 0.4-0.3 0.72-0.7 0.72h-1.52c-0.38 0-0.7-0.32-0.7-0.72v-3.7c0-0.38 0.32-0.7 0.7-0.7h1.52m15.58 0c0.22 0 0.44 0.12 0.58 0.3 0.12 0.2 0.16 0.44 0.06 0.66l-5.38 13.28c-0.1 0.26-0.36 0.44-0.64 0.44h-1.72c-0.3 0-0.54-0.18-0.66-0.44l-5.38-13.28c-0.08-0.22-0.06-0.46 0.08-0.66 0.12-0.18 0.34-0.3 0.58-0.3h1.64c0.28 0 0.54 0.18 0.64 0.44l3.96 9.94 3.94-9.94c0.12-0.26 0.36-0.44 0.66-0.44h1.64m12.96 11.96c0.4 0 0.7 0.32 0.7 0.72v1.46c0 0.38-0.3 0.7-0.7 0.7h-9.88c-0.38 0-0.7-0.32-0.7-0.7v-1.46c0-0.4 0.32-0.72 0.7-0.72h9.88m-9.88-3.1c-0.38 0-0.7-0.32-0.7-0.7v-1.5c0-0.38 0.32-0.7 0.7-0.7h8.98c0.4 0 0.72 0.32 0.72 0.7v1.5c0 0.38-0.32 0.7-0.72 0.7h-8.98m9.88-8.86c0.4 0 0.7 0.32 0.7 0.7v1.46c0 0.4-0.3 0.72-0.7 0.72h-9.88c-0.38 0-0.7-0.32-0.7-0.72v-1.46c0-0.38 0.32-0.7 0.7-0.7h9.88" style="fill-rule:nonzero"/>
      </g>
    </g>
  </g>
</svg>
